<!-- <svg width="42" height="42" viewBox="0 0 42 42" fill="none" xmlns="http://www.w3.org/2000/svg">
<g clip-path="url(#clip0_209_17)">
<path d="M27 0H15C6.71573 0 0 6.71573 0 15V27C0 35.2843 6.71573 42 15 42H27C35.2843 42 42 35.2843 42 27V15C42 6.71573 35.2843 0 27 0Z" fill="#E5F9FB"/>
<path d="M27 0H15C6.71573 0 0 6.71573 0 15V27C0 35.2843 6.71573 42 15 42H27C35.2843 42 42 35.2843 42 27V15C42 6.71573 35.2843 0 27 0Z" fill="#E5F9FB"/>
<path d="M23.5604 26.8194H13.3677V13.4538H23.5576V14.4536H24.9272V13.1808C24.9281 11.9818 23.8514 11 22.5409 11H14.3862C13.0739 11 12 11.9818 12 13.1808V28.8183C12 30.019 13.0739 31 14.3862 31H22.5409C23.8514 31 24.9281 30.019 24.9281 28.8183V26.7962H23.5604V26.8194ZM18.4622 29.9083C17.8576 29.9083 17.3695 29.4612 17.3695 28.9093C17.3695 28.3557 17.8577 27.9094 18.4622 27.9094C19.0676 27.9094 19.5567 28.3566 19.5567 28.9093C19.5567 29.4612 19.0677 29.9083 18.4622 29.9083Z" fill="black"/>
<path d="M17.5936 14.7952H14.5361V16.4997H17.5936V14.7952Z" fill="black"/>
<path d="M17.5936 19.1594H14.5361V20.8639H17.5936V19.1594Z" fill="black"/>
<path d="M17.5936 23.7271H14.5361V25.4307H17.5936V23.7271Z" fill="black"/>
<path d="M28.4446 19.9087C28.3366 19.392 28.1179 18.9139 27.8081 18.496L28.9046 17.4927L27.7847 16.4722L26.6901 17.4738C26.2348 17.1888 25.7091 16.9914 25.1459 16.8919V15.4714H23.5613V16.8919C22.9972 16.9914 22.4762 17.1897 22.0162 17.4738L20.9236 16.4722L19.8037 17.4935L20.8982 18.4968C20.5894 18.9148 20.3716 19.3928 20.2636 19.9086H18.7119V21.3565H20.2636C20.3716 21.8706 20.5903 22.3487 20.8991 22.7684L19.8036 23.7699L20.9235 24.7895L22.019 23.7888C22.4771 24.0737 22.9999 24.272 23.5641 24.3724V25.7903H25.1487V24.3716C25.7119 24.2729 26.2338 24.0729 26.6929 23.7897L27.7874 24.7904L28.9073 23.7699L27.8109 22.7684C28.1207 22.3504 28.3385 21.8715 28.4474 21.3557H30V19.9087H28.4446ZM24.3555 22.2079C23.4027 22.2079 22.6292 21.5042 22.6292 20.6322C22.6292 19.7611 23.4027 19.053 24.3555 19.053C25.3092 19.053 26.079 19.7602 26.079 20.6322C26.079 21.505 25.3073 22.2079 24.3555 22.2079Z" fill="black"/>
</g>
<defs>
<clipPath id="clip0_209_17">
<rect width="42" height="42" fill="white"/>
</clipPath>
</defs>
</svg> -->
<svg width="43" height="42" viewBox="0 0 43 42" fill="none" xmlns="http://www.w3.org/2000/svg">
<rect x="0.984375" width="41.9657" height="42" rx="15" fill="#F8E6E6"/>
<path d="M16.1387 19.4941C16.1387 16.7465 16.1387 15.3727 16.9922 14.5191C17.8458 13.6655 19.2196 13.6655 21.9672 13.6655C24.7148 13.6655 26.0886 13.6655 26.9423 14.5191C27.7958 15.3727 27.7958 16.7465 27.7958 19.4941V24.49C27.7958 27.2376 27.7958 28.6114 26.9423 29.465C26.0886 30.3186 24.7148 30.3186 21.9672 30.3186C19.2196 30.3186 17.8458 30.3186 16.9922 29.465C16.1387 28.6114 16.1387 27.2376 16.1387 24.49V19.4941Z" stroke="black" stroke-width="1.24898" stroke-linecap="round"/>
<path d="M21.1348 27.8203H22.8001" stroke="black" stroke-width="1.24898" stroke-linecap="round" stroke-linejoin="round"/>
<path d="M19.4697 13.6655L19.5438 14.1102C19.7044 15.0738 19.7847 15.5556 20.1152 15.8488C20.4599 16.1546 20.9486 16.1635 21.9677 16.1635C22.9868 16.1635 23.4755 16.1546 23.8202 15.8488C24.1507 15.5556 24.2309 15.0738 24.3915 14.1102L24.4656 13.6655" stroke="black" stroke-width="1.24898" stroke-linejoin="round"/>
</svg>
