<!-- <svg width="42" height="42" viewBox="0 0 42 42" fill="none" xmlns="http://www.w3.org/2000/svg">
<g clip-path="url(#clip0_209_2)">
<path d="M27 0H15C6.71573 0 0 6.71573 0 15V27C0 35.2843 6.71573 42 15 42H27C35.2843 42 42 35.2843 42 27V15C42 6.71573 35.2843 0 27 0Z" fill="#F8E6E6"/>
<path d="M27 0H15C6.71573 0 0 6.71573 0 15V27C0 35.2843 6.71573 42 15 42H27C35.2843 42 42 35.2843 42 27V15C42 6.71573 35.2843 0 27 0Z" fill="#F8E6E6"/>
<path d="M25.0774 18.0937C25.0546 17.961 24.9316 17.8724 24.8024 17.8957L23.9498 18.0502C23.8475 17.8032 23.7167 17.5719 23.5616 17.3603L24.1186 16.6778C24.1591 16.6282 24.1787 16.5641 24.1733 16.4996C24.1678 16.435 24.1376 16.3754 24.0893 16.3337L23.3436 15.6903C23.2954 15.6487 23.233 15.6285 23.1702 15.6341C23.1075 15.6397 23.0496 15.6708 23.009 15.7204L22.4525 16.4024C22.2242 16.2828 21.98 16.1904 21.724 16.1296V15.2394C21.724 15.1045 21.6178 14.9951 21.4866 14.9951H20.5133C20.3822 14.9951 20.2759 15.1045 20.2759 15.2394V16.1296C20.0198 16.1904 19.7757 16.2828 19.5473 16.4024L18.9909 15.7204C18.9065 15.6171 18.7568 15.6036 18.6564 15.6903L17.9108 16.3337C17.8625 16.3754 17.8324 16.435 17.8268 16.4996C17.8214 16.5641 17.841 16.6282 17.8815 16.6778L18.4384 17.3603C18.2833 17.5719 18.1526 17.8033 18.0502 18.0502L17.1977 17.8957C17.0687 17.8724 16.9454 17.961 16.9226 18.0937L16.7536 19.0796C16.7427 19.1434 16.7568 19.2091 16.793 19.2621C16.8291 19.3152 16.8841 19.3512 16.9462 19.3624L17.7994 19.5172C17.8132 19.7889 17.8592 20.0519 17.9334 20.3023L17.1836 20.7475C17.129 20.7799 17.0893 20.8331 17.073 20.8957C17.0567 20.9584 17.0653 21.0249 17.0967 21.081L17.5834 21.9479C17.6149 22.0041 17.6668 22.0449 17.7277 22.0617C17.7478 22.0673 17.7685 22.0701 17.7891 22.0701C17.8304 22.0701 17.8714 22.059 17.9078 22.0373L18.6582 21.5917C18.8349 21.7859 19.0341 21.9582 19.2516 22.1043L18.9553 22.9412C18.9338 23.0021 18.9366 23.0692 18.9632 23.1279C18.9899 23.1867 19.038 23.2319 19.0972 23.2542L20.0119 23.5965C20.0381 23.6063 20.0657 23.6112 20.0932 23.6112C20.1275 23.6112 20.1617 23.6036 20.1934 23.5884C20.2505 23.5611 20.2947 23.5115 20.3162 23.4505L20.6125 22.6135C20.7395 22.6293 20.8688 22.6376 21 22.6376C21.1311 22.6376 21.2605 22.6293 21.3875 22.6135L21.6838 23.4505C21.7054 23.5115 21.7494 23.5609 21.8065 23.5884C21.8383 23.6036 21.8724 23.6112 21.9069 23.6112C21.9343 23.6112 21.9619 23.6062 21.988 23.5965L22.9028 23.2542C22.962 23.2319 23.0101 23.1867 23.0368 23.1278C23.0634 23.0691 23.0662 23.0021 23.0447 22.9412L22.7483 22.1043C22.9659 21.9582 23.1651 21.7861 23.3417 21.5917L24.0922 22.0373C24.1286 22.059 24.1696 22.07 24.2109 22.07C24.2315 22.07 24.2522 22.0673 24.2723 22.0617C24.3332 22.0449 24.385 22.0041 24.4165 21.9479L24.9031 21.081C24.9347 21.025 24.9432 20.9584 24.927 20.8957C24.9106 20.8331 24.8708 20.7798 24.8163 20.7475L24.0666 20.3023C24.1406 20.0519 24.1867 19.789 24.2006 19.5172L25.0538 19.3624C25.1158 19.3512 25.1708 19.3152 25.2069 19.2621C25.2432 19.2091 25.2572 19.1434 25.2463 19.0796L25.0774 18.0937ZM21 20.6462C20.2788 20.6462 19.6942 20.045 19.6942 19.3033C19.6942 18.5616 20.2788 17.9604 21 17.9604C21.7212 17.9604 22.3059 18.5616 22.3059 19.3033C22.3059 20.045 21.7212 20.6462 21 20.6462Z" fill="black"/>
<path d="M29.3343 12H12.6658C11.7473 12 11 12.7685 11 13.7132V24.8854C11 25.8301 11.7473 26.5986 12.6658 26.5986H18.0365L17.0171 28.9102C16.9118 29.1489 16.9316 29.4263 17.0697 29.6466C17.2078 29.8669 17.4452 30 17.7001 30H24.2999C24.2999 30 24.3006 30 24.3009 30C24.7152 30 25.051 29.6547 25.051 29.2287C25.051 29.1005 25.0207 28.9794 24.9667 28.8731L23.9635 26.5986H29.3342C30.2527 26.5986 31 25.8301 31 24.8854V13.7132C31.0001 12.7685 30.2529 12 29.3343 12ZM29.5001 24.8855C29.5001 24.9795 29.4257 25.056 29.3343 25.056H12.6658C12.5744 25.056 12.5 24.9795 12.5 24.8855V13.7132C12.5 13.6191 12.5744 13.5426 12.6658 13.5426H29.3343C29.4257 13.5426 29.5001 13.6191 29.5001 13.7132L29.5001 24.8855Z" fill="black"/>
</g>
<defs>
<clipPath id="clip0_209_2">
<rect width="42" height="42" fill="white"/>
</clipPath>
</defs>
</svg> -->
<svg width="43" height="42" viewBox="0 0 43 42" fill="none" xmlns="http://www.w3.org/2000/svg">
<rect x="0.984375" width="41.9657" height="42" rx="15" fill="#E5F9FB"/>
<path d="M26.1309 17.6611L27.6628 19.2016C28.3068 19.8493 28.6288 20.1731 28.6288 20.5754C28.6288 20.9778 28.3068 21.3016 27.6628 21.9492L26.1309 23.4897" stroke="black" stroke-width="1.24898" stroke-linecap="round" stroke-linejoin="round"/>
<path d="M17.8046 17.6611L16.2727 19.2016C15.6287 19.8493 15.3066 20.1731 15.3066 20.5754C15.3066 20.9778 15.6287 21.3016 16.2727 21.9492L17.8046 23.4897" stroke="black" stroke-width="1.24898" stroke-linecap="round" stroke-linejoin="round"/>
<path d="M24.049 14.3306L19.8857 27.653" stroke="black" stroke-width="1.24898" stroke-linecap="round" stroke-linejoin="round"/>
</svg>
