<!-- <svg width="42" height="42" viewBox="0 0 42 42" fill="none" xmlns="http://www.w3.org/2000/svg">
<g clip-path="url(#clip0_209_7)">
<path d="M27 0H15C6.71573 0 0 6.71573 0 15V27C0 35.2843 6.71573 42 15 42H27C35.2843 42 42 35.2843 42 27V15C42 6.71573 35.2843 0 27 0Z" fill="#F8E6E6"/>
<path d="M27 0H15C6.71573 0 0 6.71573 0 15V27C0 35.2843 6.71573 42 15 42H27C35.2843 42 42 35.2843 42 27V15C42 6.71573 35.2843 0 27 0Z" fill="#F8E6E6"/>
<path d="M24.4733 28.3414C24.3696 28.2731 24.2793 28.1816 24.2076 28.0707C24.1744 28.0196 24.1464 27.9655 24.1232 27.9096H12.347V15.3452H28.3315V23.5493C28.6728 23.5827 28.9591 23.8253 29.0793 24.1575C29.1858 24.0943 29.3044 24.0553 29.4291 24.0434C29.5134 24.0355 29.5972 24.0411 29.6785 24.0585V12.2151C29.6785 11.5451 29.175 11 28.5561 11H12.1225C11.5036 11 11 11.5451 11 12.2151V28.1527C11 28.8227 11.5036 29.3677 12.1225 29.3677H24.371C24.2754 29.1582 24.2527 28.9217 24.309 28.6941C24.3414 28.5632 24.3975 28.4438 24.4733 28.3414ZM27.0989 13.0403C27.0989 12.7926 27.2845 12.5917 27.5134 12.5917H27.9278C28.1568 12.5917 28.3423 12.7925 28.3423 13.0403V13.5488C28.3423 13.7966 28.1567 13.9974 27.9278 13.9974H27.5134C27.2844 13.9974 27.0989 13.7966 27.0989 13.5488V13.0403ZM25.1717 13.0403C25.1717 12.7926 25.3573 12.5917 25.5862 12.5917H26.0007C26.2296 12.5917 26.4151 12.7925 26.4151 13.0403V13.5488C26.4151 13.7966 26.2295 13.9974 26.0007 13.9974H25.5862C25.3573 13.9974 25.1717 13.7966 25.1717 13.5488V13.0403ZM23.2445 13.0403C23.2445 12.7926 23.4301 12.5917 23.6589 12.5917H24.0734C24.3023 12.5917 24.4879 12.7925 24.4879 13.0403V13.5488C24.4879 13.7966 24.3023 13.9974 24.0734 13.9974H23.6589C23.4301 13.9974 23.2445 13.7966 23.2445 13.5488V13.0403Z" fill="black"/>
<path d="M30.9973 27.4857L30.8728 26.7211C30.856 26.6182 30.7653 26.5494 30.6701 26.5675L30.042 26.6873C29.9666 26.4958 29.8703 26.3164 29.756 26.1522L30.1663 25.6229C30.1961 25.5845 30.2106 25.5348 30.2066 25.4847C30.2025 25.4346 30.1802 25.3885 30.1447 25.3561L29.5954 24.8571C29.5598 24.8248 29.5138 24.8091 29.4676 24.8135C29.4214 24.8179 29.3787 24.842 29.3489 24.8804L28.939 25.4094C28.7707 25.3166 28.5907 25.245 28.4022 25.1978V24.5074C28.4022 24.4029 28.3238 24.318 28.2273 24.318H27.51C27.4135 24.318 27.3351 24.4029 27.3351 24.5074V25.1978C27.1464 25.245 26.9666 25.3166 26.7983 25.4094L26.3883 24.8805C26.3262 24.8004 26.2159 24.79 26.1418 24.8571L25.5925 25.3561C25.5569 25.3885 25.5347 25.4346 25.5306 25.4847C25.5266 25.5348 25.5411 25.5846 25.5709 25.623L25.9812 26.1523C25.8671 26.3164 25.7706 26.4959 25.6952 26.6874L25.0671 26.5675C24.9721 26.5494 24.8813 26.6182 24.8645 26.7211L24.74 27.4857C24.7319 27.5351 24.7423 27.5859 24.7689 27.6271C24.7956 27.6683 24.836 27.6963 24.8817 27.705L25.5103 27.8249C25.5206 28.0357 25.5545 28.2397 25.609 28.4339L25.0566 28.779C25.0164 28.804 24.9871 28.8455 24.975 28.894C24.963 28.9425 24.9694 28.9941 24.9925 29.0376L25.3511 29.7099C25.3742 29.7535 25.4125 29.7852 25.4573 29.7982C25.4722 29.8025 25.4874 29.8046 25.5026 29.8046C25.533 29.8046 25.5631 29.796 25.59 29.7792L26.1429 29.4337C26.2729 29.5845 26.4197 29.7181 26.5801 29.8311L26.3618 30.4803C26.346 30.5275 26.348 30.5796 26.3676 30.6251C26.3873 30.6706 26.4227 30.7059 26.4663 30.723L27.1401 30.9884C27.1595 30.9961 27.1798 31 27.2 31C27.2252 31 27.2506 30.994 27.274 30.9822C27.3161 30.961 27.3485 30.9225 27.3644 30.8753L27.5826 30.2261C27.6762 30.2384 27.7715 30.2447 27.8681 30.2447C27.9647 30.2447 28.06 30.2383 28.1536 30.2261L28.3719 30.8753C28.3877 30.9225 28.4203 30.961 28.4622 30.9822C28.4856 30.994 28.5109 31 28.5363 31C28.5565 31 28.5767 30.9962 28.5961 30.9884L29.27 30.723C29.3135 30.7059 29.349 30.6705 29.3686 30.6251C29.3882 30.5796 29.3903 30.5275 29.3744 30.4803L29.1561 29.8312C29.3164 29.7182 29.4632 29.5845 29.5933 29.4338L30.1462 29.7793C30.173 29.796 30.2032 29.8047 30.2337 29.8047C30.2488 29.8047 30.2641 29.8025 30.279 29.7983C30.3238 29.7853 30.362 29.7535 30.3851 29.71L30.7437 29.0376C30.7668 28.9942 30.7732 28.9425 30.7612 28.894C30.7491 28.8456 30.7198 28.8041 30.6796 28.779L30.1273 28.434C30.1818 28.2397 30.2157 28.0358 30.2259 27.825L30.8545 27.7051C30.9002 27.6964 30.9408 27.6684 30.9674 27.6272C30.9949 27.5859 31.0054 27.5351 30.9973 27.4857ZM27.8687 28.7006C27.3374 28.7006 26.9066 28.2343 26.9066 27.6591C26.9066 27.084 27.3375 26.6178 27.8687 26.6178C28.4 26.6178 28.8308 27.084 28.8308 27.6591C28.8308 28.2343 28.4 28.7006 27.8687 28.7006Z" fill="black"/>
<path d="M18.844 22.3099C18.844 22.0649 18.7114 21.8399 18.506 21.7367L16.6269 20.7916L18.5061 19.8464C18.7114 19.7431 18.844 19.5181 18.844 19.2732V19.2568C18.844 19.0397 18.7431 18.8405 18.5742 18.724C18.4808 18.6594 18.3719 18.6252 18.2596 18.6252C18.1749 18.6252 18.0899 18.6454 18.0138 18.6837L15.0096 20.1959C14.8044 20.2992 14.6719 20.5242 14.6719 20.769V20.8142C14.6719 21.0587 14.8044 21.2836 15.0097 21.3874L18.0142 22.8998C18.0918 22.9387 18.1746 22.9584 18.26 22.9584C18.3714 22.9584 18.4798 22.9242 18.5742 22.8592C18.7432 22.7423 18.844 22.5432 18.844 22.3264L18.844 22.3099Z" fill="black"/>
<path d="M21.8078 17.0844C21.6982 16.922 21.5219 16.8251 21.3362 16.8251H21.3213C21.0663 16.8251 20.8427 17.0016 20.765 17.2641L18.7857 23.9028C18.7293 24.0945 18.7611 24.3056 18.8705 24.4679C18.9801 24.6302 19.1564 24.7272 19.3421 24.7272H19.3571C19.612 24.7272 19.8354 24.5505 19.913 24.2881L21.8921 17.65C21.9489 17.4585 21.9174 17.247 21.8078 17.0844Z" fill="black"/>
<path d="M25.6692 20.1959L22.665 18.6837C22.5892 18.6455 22.5043 18.6254 22.4196 18.6254C22.3073 18.6254 22.1984 18.6594 22.105 18.7239C21.9359 18.8406 21.835 19.0398 21.835 19.2568V19.2733C21.835 19.518 21.9675 19.743 22.173 19.8467L24.052 20.7917L22.1729 21.7367C21.9676 21.8399 21.835 22.065 21.835 22.31V22.3265C21.835 22.5433 21.9359 22.7423 22.105 22.8594C22.199 22.9242 22.3076 22.9585 22.4191 22.9585C22.5044 22.9585 22.587 22.9388 22.6652 22.8997L25.6696 21.3873C25.8747 21.2837 26.0072 21.0589 26.0072 20.8143V20.7691C26.007 20.5242 25.8745 20.2993 25.6692 20.1959Z" fill="black"/>
</g>
<defs>
<clipPath id="clip0_209_7">
<rect width="42" height="42" fill="white"/>
</clipPath>
</defs>
</svg> -->
<svg width="43" height="42" viewBox="0 0 43 42" fill="none" xmlns="http://www.w3.org/2000/svg">
<rect x="0.984375" width="41.9657" height="42" rx="15" fill="#F8E9D5"/>
<path d="M30.2937 20.9921C30.2937 16.3934 26.5657 12.6655 21.9672 12.6655C17.3685 12.6655 13.6406 16.3934 13.6406 20.9921C13.6406 25.5906 17.3685 29.3186 21.9672 29.3186C22.668 29.3186 23.6325 29.4154 23.6325 28.4859C23.6325 27.9789 23.3687 27.5877 23.1067 27.199C22.7234 26.6304 22.3438 26.0673 22.7998 25.1553C23.3549 24.0451 24.2801 24.0451 25.6987 24.0451C26.408 24.0451 27.2407 24.0451 28.2121 23.9063C29.9615 23.6565 30.2937 22.5811 30.2937 20.9921Z" stroke="black" stroke-width="1.24898"/>
<path d="M17.8037 23.4917L17.8109 23.4897" stroke="black" stroke-width="1.66531" stroke-linecap="round" stroke-linejoin="round"/>
<path d="M19.8857 19.3266C20.5755 19.3266 21.1347 18.7674 21.1347 18.0776C21.1347 17.3878 20.5755 16.8286 19.8857 16.8286C19.1959 16.8286 18.6367 17.3878 18.6367 18.0776C18.6367 18.7674 19.1959 19.3266 19.8857 19.3266Z" stroke="black" stroke-width="1.24898"/>
<path d="M25.7148 20.1591C26.4046 20.1591 26.9638 19.5999 26.9638 18.9101C26.9638 18.2203 26.4046 17.6611 25.7148 17.6611C25.025 17.6611 24.4658 18.2203 24.4658 18.9101C24.4658 19.5999 25.025 20.1591 25.7148 20.1591Z" stroke="black" stroke-width="1.24898"/>
</svg>
