<svg width="139" height="34" viewBox="0 0 139 34" fill="none" xmlns="http://www.w3.org/2000/svg">
<path d="M62.9589 25.68L66.3532 21.8743L63.7817 19.7829C65.2217 17.7257 66.216 15.3257 66.216 12.5143C66.216 5.48571 60.7989 0 53.3932 0C45.9875 0 40.5703 5.48571 40.5703 12.5143C40.5703 19.7143 45.9875 25.3371 53.3932 25.3371C56.0675 25.3371 58.4675 24.6171 60.456 23.3143L62.9589 25.68ZM53.3932 19.8514C49.7246 19.8514 46.776 16.6971 46.776 12.5143C46.776 8.50286 49.7246 5.48571 53.3932 5.48571C57.0617 5.48571 60.0103 8.50286 60.0103 12.5143C60.0103 13.6457 59.7703 14.7086 59.3589 15.6686L56.9246 13.3029L53.5646 17.1086L56.0675 19.3029C55.3132 19.68 54.2846 19.8514 53.3932 19.8514ZM72.3303 25.3371C76.0332 25.3371 77.336 22.7657 77.336 22.7657H77.4046C77.4046 22.7657 77.341 23.2426 77.3363 23.7984L77.336 24.9257H82.7532V14.0571C82.7532 9.56571 79.7703 6.85714 74.7989 6.85714C70.4446 6.85714 67.3932 9.15429 67.3932 9.15429L69.4503 13.3371C69.4503 13.3371 71.9875 11.6571 74.216 11.6571C75.6903 11.6571 76.8217 12.1371 76.8217 13.6114V13.92H76.5817C73.8389 13.92 66.3303 14.5029 66.3303 19.6457C66.3303 23.1429 69.0389 25.3371 72.3303 25.3371ZM73.976 20.8114C72.8103 20.8114 72.296 20.16 72.296 19.3371C72.296 17.8629 74.456 17.3143 76.3417 17.3143H76.8903V17.6914C76.8903 19.1314 75.5189 20.8114 73.976 20.8114ZM92.6389 24.9943V19.8514C92.6389 19.8514 92.296 19.8857 91.9189 19.8857C90.5817 19.8857 90.2732 19.3029 90.2732 17.6229V0.411429H84.3417V18.4114C84.3417 24.2835 87.6349 25.0815 90.7613 25.0971H90.856C91.816 25.0971 92.6389 24.9943 92.6389 24.9943ZM103.793 25.3371C108.49 25.3371 112.022 21.7029 112.022 16.1143C112.022 10.6286 108.867 6.85714 104.067 6.85714C100.947 6.85714 99.3017 8.74286 99.3017 8.74286H99.2332C99.2332 8.74286 99.3017 8.12572 99.3017 7.23429V0.411429H93.3703V24.9257H98.9246V24.3429C98.9246 23.7943 98.8903 23.3486 98.8903 23.3486H98.9589C98.9589 23.3486 100.536 25.3371 103.793 25.3371ZM102.593 20.4343C100.262 20.4343 99.1303 18.3429 99.1303 16.2171C99.1303 13.1657 100.81 11.8629 102.593 11.8629C104.65 11.8629 106.056 13.5771 106.056 16.2171C106.056 18.9257 104.445 20.4343 102.593 20.4343ZM117.416 24.9257V0.72H114.022V24.9257H117.416ZM130.285 24.9257V3.66857H138.582V0.72H118.593V3.66857H126.89V24.9257H130.285Z" fill="#0066FF"/>
<path d="M42.3584 33.5512C43.2403 33.5512 43.7178 32.9949 43.7178 32.9949L43.3865 32.5451C43.3865 32.5451 42.9821 32.9804 42.3828 32.9804C41.6617 32.9804 41.2183 32.4048 41.2183 31.7519C41.2183 31.1134 41.6471 30.5717 42.3779 30.5717C42.9285 30.5717 43.3231 30.9345 43.3231 30.9345L43.6252 30.4701C43.6252 30.4701 43.1916 30.001 42.3487 30.001C41.3304 30.001 40.5703 30.7652 40.5703 31.7616C40.5703 32.7724 41.3011 33.5512 42.3584 33.5512ZM45.8469 33.5512C46.8652 33.5512 47.635 32.7628 47.635 31.7519C47.635 30.77 46.8652 30.001 45.8469 30.001C44.8286 30.001 44.0588 30.77 44.0588 31.7519C44.0588 32.7628 44.8286 33.5512 45.8469 33.5512ZM45.8469 32.9804C45.2135 32.9804 44.7068 32.4581 44.7068 31.7519C44.7068 31.0747 45.2135 30.5717 45.8469 30.5717C46.4803 30.5717 46.987 31.0747 46.987 31.7519C46.987 32.4581 46.4803 32.9804 45.8469 32.9804ZM48.7946 33.4931L48.9408 31.5729C48.9463 31.4877 48.9483 31.3909 48.9488 31.3032L48.9487 31.2192C48.9481 31.1134 48.9457 31.036 48.9457 31.036H48.9554C48.9554 31.036 48.9705 31.0837 48.9937 31.1536L49.0194 31.2301C49.0565 31.3395 49.104 31.4738 49.1454 31.5729L49.7009 32.903H50.2514L50.8117 31.5729C50.8946 31.3746 50.9969 31.0409 50.9969 31.0409H51.0066C51.0066 31.0409 50.9969 31.3456 51.0115 31.5729L51.1577 33.4931H51.7813L51.5036 30.059H50.8312L50.154 31.7567C50.076 31.9599 49.9835 32.2597 49.9835 32.2597H49.9737C49.9737 32.2597 49.9304 32.1265 49.8784 31.9774L49.8465 31.887C49.8303 31.8418 49.8139 31.7974 49.7983 31.7567L49.1211 30.059H48.4487L48.1661 33.4931H48.7946ZM53.1796 33.4931V32.3081H53.8861C54.5341 32.3081 54.9872 31.8438 54.9872 31.1763C54.9872 30.5088 54.5341 30.059 53.8861 30.059H52.5511V33.4931H53.1796ZM53.7692 31.7664H53.1796V30.5959H53.7789C54.1346 30.5959 54.349 30.8232 54.349 31.1763C54.349 31.5342 54.1346 31.7664 53.7692 31.7664ZM57.667 33.4931V32.9562H56.1712V30.059H55.5427V33.4931H57.667ZM60.3175 33.4931V32.9562H58.7973V32.0324H59.9618V31.4955H58.7973V30.5959H60.2395V30.059H58.1688V33.4931H60.3175ZM61.3163 33.4931L61.8473 32.5693C61.9643 32.371 62.0617 32.163 62.0617 32.163H62.0715C62.0715 32.163 62.0762 32.1726 62.0846 32.1895L62.1064 32.2327C62.1458 32.3103 62.2138 32.4418 62.2858 32.5693L62.8218 33.4931H63.5283L62.4466 31.7519L63.4893 30.059H62.7682L62.2858 30.9006C62.1738 31.1038 62.0763 31.3214 62.0763 31.3214H62.0666C62.0666 31.3214 61.9594 31.0989 61.8473 30.9006L61.3747 30.059H60.6585L61.6914 31.7519L60.6147 33.4931H61.3163ZM65.8669 33.4931V32.3081H66.5734C67.2214 32.3081 67.6745 31.8438 67.6745 31.1763C67.6745 30.5088 67.2214 30.059 66.5734 30.059H65.2384V33.4931H65.8669ZM66.4565 31.7664H65.8669V30.5959H66.4662C66.8219 30.5959 67.0363 30.8232 67.0363 31.1763C67.0363 31.5342 66.8219 31.7664 66.4565 31.7664ZM68.8585 33.4931V32.2114H69.4626L70.1496 33.4931H70.8512L70.1399 32.2114C70.0717 32.0905 70.0229 32.0421 70.0229 32.0421V32.0324C70.3883 31.8873 70.6076 31.5052 70.6076 31.0941C70.6076 30.6394 70.3883 30.3105 70.0424 30.1558C69.8914 30.088 69.7209 30.059 69.3457 30.059H68.23V33.4931H68.8585ZM69.4236 31.6697H68.8585V30.5959H69.336C69.828 30.5959 69.9693 30.799 69.9693 31.1279C69.9693 31.4714 69.7598 31.6697 69.4236 31.6697ZM72.9852 33.5512C74.0035 33.5512 74.7734 32.7628 74.7734 31.7519C74.7734 30.77 74.0035 30.001 72.9852 30.001C71.967 30.001 71.1971 30.77 71.1971 31.7519C71.1971 32.7628 71.967 33.5512 72.9852 33.5512ZM72.9852 32.9804C72.3519 32.9804 71.8451 32.4581 71.8451 31.7519C71.8451 31.0747 72.3519 30.5717 72.9852 30.5717C73.6186 30.5717 74.1254 31.0747 74.1254 31.7519C74.1254 32.4581 73.6186 32.9804 72.9852 32.9804ZM76.6638 33.4931C77.302 33.4931 77.8575 33.1836 77.8575 32.4967C77.8575 32.1485 77.6772 31.8003 77.2972 31.689V31.6793C77.5603 31.5391 77.7162 31.2634 77.7162 30.9441C77.7162 30.3782 77.2728 30.059 76.6492 30.059H75.4116V33.4931H76.6638ZM76.6492 31.4617H76.0401V30.5959H76.6394C76.9318 30.5959 77.0779 30.7749 77.0779 31.0215C77.0779 31.2682 76.922 31.4617 76.6492 31.4617ZM76.7125 32.9562H76.0401V31.9647H76.7125C77.0292 31.9647 77.2143 32.1727 77.2143 32.458C77.2143 32.7483 77.0341 32.9562 76.7125 32.9562ZM80.6639 33.4931V32.9562H79.1681V30.059H78.5396V33.4931H80.6639ZM83.3144 33.4931V32.9562H81.7942V32.0324H82.9587V31.4955H81.7942V30.5959H83.2364V30.059H81.1657V33.4931H83.3144ZM84.4886 33.4931L84.6348 31.5729C84.6402 31.4877 84.6423 31.3909 84.6427 31.3032L84.6427 31.2192C84.6421 31.1134 84.6396 31.036 84.6396 31.036H84.6494C84.6494 31.036 84.6644 31.0837 84.6876 31.1536L84.7133 31.2301C84.7505 31.3395 84.798 31.4738 84.8394 31.5729L85.3948 32.903H85.9454L86.5057 31.5729C86.5885 31.3746 86.6908 31.0409 86.6908 31.0409H86.7006C86.7006 31.0409 86.6908 31.3456 86.7054 31.5729L86.8516 33.4931H87.4753L87.1975 30.059H86.5252L85.8479 31.7567C85.77 31.9599 85.6774 32.2597 85.6774 32.2597H85.6677C85.6677 32.2597 85.6244 32.1265 85.5724 31.9774L85.5404 31.887C85.5242 31.8418 85.5078 31.7974 85.4923 31.7567L84.815 30.059H84.1427L83.8601 33.4931H84.4886ZM89.1757 33.5512C89.8968 33.5512 90.3158 33.0917 90.3158 32.5451C90.3158 31.4472 88.6884 31.5971 88.6884 30.9877C88.6884 30.7458 88.9174 30.5766 89.2098 30.5766C89.6434 30.5766 89.9747 30.8764 89.9747 30.8764L90.2476 30.3686L90.2402 30.3613C90.1868 30.3099 89.8399 30.001 89.2146 30.001C88.552 30.001 88.0551 30.4266 88.0551 30.9973C88.0551 32.0518 89.6872 31.9454 89.6872 32.5596C89.6872 32.8402 89.4485 32.9756 89.1854 32.9756C88.6982 32.9756 88.323 32.6128 88.323 32.6128L87.982 33.082C87.982 33.082 87.9843 33.0846 87.9889 33.0893L88.0096 33.1098C88.1152 33.2107 88.5199 33.5512 89.1757 33.5512ZM91.0563 34.001L91.5241 32.8692H90.9151L90.5886 34.001H91.0563ZM94.35 33.5512C95.0711 33.5512 95.4901 33.0917 95.4901 32.5451C95.4901 31.4472 93.8627 31.5971 93.8627 30.9877C93.8627 30.7458 94.0917 30.5766 94.3841 30.5766C94.8177 30.5766 95.149 30.8764 95.149 30.8764L95.4219 30.3686L95.4146 30.3613C95.3611 30.3099 95.0142 30.001 94.389 30.001C93.7263 30.001 93.2294 30.4266 93.2294 30.9973C93.2294 32.0518 94.8616 31.9454 94.8616 32.5596C94.8616 32.8402 94.6228 32.9756 94.3597 32.9756C93.8725 32.9756 93.4973 32.6128 93.4973 32.6128L93.1563 33.082C93.1563 33.082 93.1586 33.0846 93.1632 33.0893L93.1839 33.1098C93.2895 33.2107 93.6942 33.5512 94.35 33.5512ZM96.7471 33.4931V30.059H96.1186V33.4931H96.7471ZM98.1454 33.4931L98.2916 31.5729C98.2971 31.4877 98.2991 31.3909 98.2996 31.3032L98.2995 31.2192C98.2989 31.1134 98.2965 31.036 98.2965 31.036H98.3062C98.3062 31.036 98.3213 31.0837 98.3445 31.1536L98.3702 31.2301C98.4073 31.3395 98.4548 31.4738 98.4962 31.5729L99.0517 32.903H99.6022L100.163 31.5729C100.245 31.3746 100.348 31.0409 100.348 31.0409H100.357C100.357 31.0409 100.348 31.3456 100.362 31.5729L100.508 33.4931H101.132L100.854 30.059H100.182L99.5048 31.7567C99.4268 31.9599 99.3343 32.2597 99.3343 32.2597H99.3245C99.3245 32.2597 99.2812 32.1265 99.2292 31.9774L99.1973 31.887C99.1811 31.8418 99.1647 31.7974 99.1491 31.7567L98.4719 30.059H97.7995L97.5169 33.4931H98.1454ZM102.53 33.4931V32.3081H103.237C103.885 32.3081 104.338 31.8438 104.338 31.1763C104.338 30.5088 103.885 30.059 103.237 30.059H101.902V33.4931H102.53ZM103.12 31.7664H102.53V30.5959H103.13C103.485 30.5959 103.7 30.8232 103.7 31.1763C103.7 31.5342 103.485 31.7664 103.12 31.7664ZM107.018 33.4931V32.9562H105.522V30.059H104.893V33.4931H107.018ZM109.668 33.4931V32.9562H108.148V32.0324H109.313V31.4955H108.148V30.5959H109.59V30.059H107.52V33.4931H109.668ZM112.436 33.5512C113.157 33.5512 113.576 33.0917 113.576 32.5451C113.576 31.4472 111.948 31.5971 111.948 30.9877C111.948 30.7458 112.177 30.5766 112.47 30.5766C112.903 30.5766 113.235 30.8764 113.235 30.8764L113.508 30.3686L113.5 30.3613C113.447 30.3099 113.1 30.001 112.475 30.001C111.812 30.001 111.315 30.4266 111.315 30.9973C111.315 32.0518 112.947 31.9454 112.947 32.5596C112.947 32.8402 112.709 32.9756 112.445 32.9756C111.958 32.9756 111.583 32.6128 111.583 32.6128L111.242 33.082C111.242 33.082 111.244 33.0846 111.249 33.0893L111.27 33.1098C111.375 33.2107 111.78 33.5512 112.436 33.5512ZM115.754 33.5512C116.772 33.5512 117.542 32.7628 117.542 31.7519C117.542 30.77 116.772 30.001 115.754 30.001C114.735 30.001 113.966 30.77 113.966 31.7519C113.966 32.7628 114.735 33.5512 115.754 33.5512ZM115.754 32.9804C115.12 32.9804 114.614 32.4581 114.614 31.7519C114.614 31.0747 115.12 30.5717 115.754 30.5717C116.387 30.5717 116.894 31.0747 116.894 31.7519C116.894 32.4581 116.387 32.9804 115.754 32.9804ZM120.304 33.4931V32.9562H118.809V30.059H118.18V33.4931H120.304ZM122.156 33.5512C122.989 33.5512 123.549 33.0288 123.549 32.2597V30.059H122.921V32.2549C122.921 32.7192 122.614 32.9804 122.151 32.9804C121.688 32.9804 121.386 32.7192 121.386 32.2597V30.059H120.757V32.2597C120.757 33.0288 121.318 33.5512 122.156 33.5512ZM125.722 33.4931V30.5959H126.857V30.059H123.958V30.5959H125.094V33.4931H125.722ZM127.944 33.4931V30.059H127.315V33.4931H127.944ZM130.37 33.5512C131.389 33.5512 132.158 32.7628 132.158 31.7519C132.158 30.77 131.389 30.001 130.37 30.001C129.352 30.001 128.582 30.77 128.582 31.7519C128.582 32.7628 129.352 33.5512 130.37 33.5512ZM130.37 32.9804C129.737 32.9804 129.23 32.4581 129.23 31.7519C129.23 31.0747 129.737 30.5717 130.37 30.5717C131.004 30.5717 131.51 31.0747 131.51 31.7519C131.51 32.4581 131.004 32.9804 130.37 32.9804ZM133.425 33.4931V31.5149C133.425 31.3117 133.391 30.9828 133.391 30.9828H133.401C133.401 30.9828 133.557 31.3166 133.688 31.5149L134.999 33.4931H135.623V30.059H134.999V32.0421C134.999 32.2452 135.033 32.5741 135.033 32.5741H135.023C135.023 32.5741 134.867 32.2404 134.736 32.0421L133.425 30.059H132.797V33.4931H133.425ZM137.43 33.5512C138.151 33.5512 138.57 33.0917 138.57 32.5451C138.57 31.4472 136.943 31.5971 136.943 30.9877C136.943 30.7458 137.172 30.5766 137.464 30.5766C137.898 30.5766 138.229 30.8764 138.229 30.8764L138.502 30.3686C138.502 30.3686 138.151 30.001 137.469 30.001C136.807 30.001 136.31 30.4266 136.31 30.9973C136.31 32.0518 137.942 31.9454 137.942 32.5596C137.942 32.8402 137.703 32.9756 137.44 32.9756C136.953 32.9756 136.578 32.6128 136.578 32.6128L136.237 33.082C136.237 33.082 136.239 33.0846 136.243 33.0893L136.264 33.1098C136.37 33.2107 136.774 33.5512 137.43 33.5512Z" fill="#0066FF"/>
<path fill-rule="evenodd" clip-rule="evenodd" d="M17 0C26.4698 0 34 7.46333 34 16.8522C34 18.3823 33.7069 20.1043 33.2672 22.0261C30.3362 18.6261 26.5259 18.9217 23.8879 19.9565C24.3276 18.7739 24.4741 18.1826 24.4741 17C24.4741 13.1565 21.25 9.31304 17 9.31304C12.6634 9.31304 9.23276 12.7882 9.23276 17C9.23276 21.2118 12.4569 24.687 17 24.6372C18.9944 24.6372 22.2759 22.7652 22.2759 22.7652C22.2759 22.7652 24.6207 21.4114 27.5517 21.8783C30.4828 22.3451 32.282 24.7267 32.2414 24.687C35.0259 27.9391 34.422 34.7452 30.9972 31.9955C30.6411 31.7096 30.2667 31.4681 29.874 31.271C29.8115 31.2552 29.7401 31.2311 29.6596 31.1992C28.5913 30.7755 27.0734 30.9873 25.106 31.8347L25.1176 31.83C22.7012 33.1201 19.9368 34 17 34C7.53022 34 0 26.241 0 16.8522C0 7.46333 7.53022 0 17 0Z" fill="#0066FF"/>
</svg>
